<?xml version="1.0" standalone="no"?><!DOCTYPE svg PUBLIC "-//W3C//DTD SVG 1.1//EN" "http://www.w3.org/Graphics/SVG/1.1/DTD/svg11.dtd"><svg t="1516525725340" class="icon" style="" viewBox="0 0 1024 1024" version="1.1" xmlns="http://www.w3.org/2000/svg" p-id="3794" xmlns:xlink="http://www.w3.org/1999/xlink" width="200" height="200"><defs><style type="text/css"></style></defs><path d="M335.67232 827.060224c-28.985344 0-52.48512 23.5008-52.48512 52.489216 0 28.95872 23.5008 52.512768 52.48512 52.512768 28.988416 0 52.488192-23.554048 52.488192-52.512768C388.160512 850.561024 364.660736 827.060224 335.67232 827.060224zM913.03936 669.597696l110.716928-393.660416L236.438528 275.93728 367.65696 669.597696 913.03936 669.597696zM965.526528 328.426496l-78.733312 288.683008L414.404608 617.109504 309.428224 328.426496 965.526528 328.426496zM918.779904 722.08384c-33.702912 0-603.608064 0-603.608064 0S202.60864 365.359104 131.463168 118.475776c-8.99584-31.241216-27.34592-26.244096-52.488192-26.244096-21.886976 0-26.24512 0-26.24512 0-29.164544 0-52.486144 0.101376-52.486144 26.244096 0 23.602176 25.321472 26.244096 52.486144 26.244096 0 0 14.199808 0 26.24512 0 25.320448 0 209.951744 629.85216 209.951744 629.85216s593.742848 0 629.85216 0C954.891264 774.572032 952.480768 722.08384 918.779904 722.08384zM860.551168 827.060224c-28.985344 0-52.48512 23.5008-52.48512 52.489216 0 28.95872 23.499776 52.512768 52.48512 52.512768 28.988416 0 52.488192-23.554048 52.488192-52.512768C913.03936 850.561024 889.53856 827.060224 860.551168 827.060224z" p-id="3795"></path></svg>