<?xml version="1.0" standalone="no"?><!DOCTYPE svg PUBLIC "-//W3C//DTD SVG 1.1//EN" "http://www.w3.org/Graphics/SVG/1.1/DTD/svg11.dtd"><svg t="1516525687309" class="icon" style="" viewBox="0 0 1024 1024" version="1.1" xmlns="http://www.w3.org/2000/svg" p-id="3557" xmlns:xlink="http://www.w3.org/1999/xlink" width="200" height="200"><defs><style type="text/css"></style></defs><path d="M512.524956 65.459874c-246.693542 0-446.677249 199.983707-446.677249 446.677249s199.983707 446.677249 446.677249 446.677249 446.677249-199.983707 446.677249-446.677249S759.218498 65.459874 512.524956 65.459874zM512.524956 97.365538c228.698702 0 414.771585 186.072883 414.771585 414.771585 0 101.935624-37.034475 195.339944-98.265024 267.636526-46.39568-101.985766-174.351933-171.920558-318.820256-171.920558-141.941779 0-269.50099 68.608587-317.175803 168.478156-59.479673-71.802326-95.282087-163.894767-95.282087-264.195148C97.753371 283.438421 283.826254 97.365538 512.524956 97.365538zM216.350466 802.108331c0.01228-0.030699 0.039909-0.050142 0.051165-0.080841 37.256532-95.545076 158.078295-162.269757 293.809629-162.269757 138.279367 0 259.412215 68.158333 295.103088 165.865655-75.076906 74.900897-178.617074 121.283274-292.790416 121.283274C396.60176 926.907685 291.689339 879.042537 216.350466 802.108331zM511.200798 575.947428c96.913237 0 175.48064-78.567403 175.48064-175.48064S608.114035 224.987171 511.200798 224.987171 335.720158 303.554574 335.720158 400.466788 414.287561 575.947428 511.200798 575.947428zM511.200798 256.892835c79.173201 0 143.574976 64.400752 143.574976 143.574976s-64.400752 143.574976-143.574976 143.574976-143.574976-64.400752-143.574976-143.574976S432.027597 256.892835 511.200798 256.892835z" p-id="3558"></path></svg>