<?xml version="1.0" standalone="no"?><!DOCTYPE svg PUBLIC "-//W3C//DTD SVG 1.1//EN" "http://www.w3.org/Graphics/SVG/1.1/DTD/svg11.dtd"><svg t="1516525698923" class="icon" style="" viewBox="0 0 1024 1024" version="1.1" xmlns="http://www.w3.org/2000/svg" p-id="3675" xmlns:xlink="http://www.w3.org/1999/xlink" width="200" height="200"><defs><style type="text/css"></style></defs><path d="M675.318646 399.169235c0-89.577155-72.869634-162.446789-162.423253-162.446789-89.577155 0-162.446789 72.869634-162.446789 162.446789 0 89.553619 72.868611 162.42223 162.446789 162.423253C602.449012 561.592488 675.318646 488.722854 675.318646 399.169235z" fill="#1296db" p-id="3676"></path><path d="M512.895393 1.833765C231.091192 1.833765 1.812275 231.112682 1.812275 512.916882c0 122.92261 44.2539 241.709017 124.633578 334.471724 97.205902 112.251573 238.072187 176.611393 386.449539 176.611393 281.804201 0 511.083118-229.278917 511.083118-511.083118S794.69857 1.833765 512.895393 1.833765zM811.620985 862.195847c-24.170492-145.975653-149.303444-251.928776-297.537534-251.928776-153.914462 0-282.778388 115.174136-299.724339 267.924075l-48.38908-5.371334c15.46318-139.243321 111.12082-251.29535 237.918691-293.210995-61.078077-37.031405-102.114702-103.94335-102.114702-180.439582 0-116.41029 94.711082-211.122395 211.121372-211.122395s211.097836 94.711082 211.097836 211.121372c0 76.088956-40.588417 142.69391-101.118002 179.846064 121.57287 39.394219 214.871789 143.033647 236.755192 275.243785L811.620985 862.195847z" fill="#1296db" p-id="3677"></path></svg>